#N canvas 35 429 1448 669 10;
#X declare -lib mrpeach;
#X obj 249 168 +~;
#X obj 247 257 dac~;
#X obj 197 127 -~ 0.5;
#X obj 283 127 -~ 0.5;
#X text 15 99 two sawtooth waves -->;
#X text 18 167 add together ------------>;
#X text 18 227 not too loud ------------>;
#X obj 196 99 phasor~ 220;
#X obj 282 99 phasor~ 221;
#X text 117 56 Six simple synthesisers 102;
#X text 17 129 shift down ---------->;
#X text 19 197 filter ------------------>;
#X text 18 260 send to output ------------>;
#X obj 249 195 bp~ 660 3;
#X obj 667 -51 unpackOSC;
#X obj 667 -86 udpreceive 9002;
#X floatatom 591 38 5 0 0 0 - - -;
#X floatatom 666 42 5 0 0 0 - - -;
#X obj 542 -112 import mrpeach;
#X obj 714 73 bng 15 250 50 0 empty empty empty 17 7 0 10 -262144 -1
-1;
#X msg 892 29 roomsize \$1;
#X msg 891 90 damping \$1;
#X msg 887 160 wet \$1;
#X msg 886 181 dry \$1;
#X msg 905 250 freeze \$1;
#X msg 828 299 bypass \$1;
#X obj 905 233 tgl 15 0 empty empty empty 17 7 0 10 -262144 -1 -1 0
1;
#X obj 828 282 tgl 15 0 empty empty empty 17 7 0 10 -262144 -1 -1 0
1;
#X obj 1019 123 hsl 128 15 0 1 0 0 empty empty empty -2 -8 0 10 -4032
-1 -1 0 1;
#X floatatom 1016 142 5 0 0 0 - - -;
#X obj 947 164 expr 1-$f1;
#X obj 1019 65 hsl 128 15 0 1 0 0 empty empty empty -2 -8 0 10 -260097
-1 -1 0 1;
#X floatatom 1016 85 5 0 0 0 - - -;
#X floatatom 849 13 5 0 0 0 - - -;
#X text 1066 150 Wet signal to dry signal ratio;
#X text 1066 166 (0 : all dry \, 1 : all wet);
#X text 1067 85 Damping level;
#X text 1066 31 Roomize;
#X obj 923 -41 hsl 128 15 0 1 0 0 empty empty empty -2 -8 0 10 -262144
-1 -1 0 1;
#X obj 615 -13 routeOSC /vol /freq /bang /bypass /roomsize;
#X obj 644 68 mtof;
#X obj 254 225 *~ 0.05;
#X floatatom 450 106 5 0 0 0 - - -;
#X floatatom 369 40 5 0 0 0 - - -;
#X msg 671 135 10 0 \, 0 400;
#X connect 0 0 13 0;
#X connect 2 0 0 0;
#X connect 3 0 0 1;
#X connect 7 0 2 0;
#X connect 8 0 3 0;
#X connect 13 0 41 0;
#X connect 14 0 39 0;
#X connect 15 0 14 0;
#X connect 17 0 40 0;
#X connect 19 0 44 0;
#X connect 26 0 24 0;
#X connect 27 0 25 0;
#X connect 28 0 29 0;
#X connect 28 0 22 0;
#X connect 28 0 30 0;
#X connect 30 0 23 0;
#X connect 31 0 21 0;
#X connect 31 0 32 0;
#X connect 33 0 20 0;
#X connect 38 0 20 0;
#X connect 38 0 33 0;
#X connect 39 0 16 0;
#X connect 39 1 17 0;
#X connect 39 2 19 0;
#X connect 39 3 27 0;
#X connect 39 4 33 0;
#X connect 40 0 42 0;
#X connect 41 0 1 0;
#X connect 41 0 1 1;
#X connect 42 0 13 1;
#X connect 43 0 8 1;
