#N canvas 0 0 667 669 10;
#X declare -lib mrpeach;
#X obj 249 168 +~;
#X obj 247 257 dac~;
#X obj 197 127 -~ 0.5;
#X obj 283 127 -~ 0.5;
#X text 15 99 two sawtooth waves -->;
#X text 18 167 add together ------------>;
#X text 18 227 not too loud ------------>;
#X obj 196 99 phasor~ 220;
#X obj 282 99 phasor~ 221;
#X text 117 56 Six simple synthesisers 102;
#X text 17 129 shift down ---------->;
#X text 19 197 filter ------------------>;
#X text 18 260 send to output ------------>;
#X obj 249 195 bp~ 660 3;
#X obj 667 -51 unpackOSC;
#X obj 667 -86 udpreceive 9002;
#X floatatom 591 38 5 0 0 0 - - -;
#X floatatom 666 42 5 0 0 0 - - -;
#X obj 542 -112 import mrpeach;
#X obj 644 68 mtof;
#X obj 254 225 *~ 0.05;
#X floatatom 450 106 5 0 0 0 - - -;
#X floatatom 369 40 5 0 0 0 - - -;
#X floatatom 640 203 5 0 0 0 - - -;
#X obj 724 32 bng 15 250 50 0 empty empty empty 17 7 0 10 -262144 -1
-1;
#X obj 710 106 random 10;
#X obj 615 -13 routeOSC /vol /freq /bang /freq2;
#X connect 0 0 13 0;
#X connect 2 0 0 0;
#X connect 3 0 0 1;
#X connect 7 0 2 0;
#X connect 8 0 3 0;
#X connect 13 0 20 0;
#X connect 14 0 26 0;
#X connect 15 0 14 0;
#X connect 17 0 19 0;
#X connect 19 0 21 0;
#X connect 20 0 1 0;
#X connect 20 0 1 1;
#X connect 21 0 13 1;
#X connect 23 0 13 2;
#X connect 24 0 25 0;
#X connect 25 0 23 0;
#X connect 26 0 16 0;
#X connect 26 1 17 0;
#X connect 26 2 24 0;
#X connect 26 3 22 0;
