#N canvas 135 83 740 563 12;
#X declare -lib mrpeach;
#X obj 124 352 dac~;
#X obj 125 232 *~;
#X obj 236 -5 unpackOSC;
#X obj 236 -40 udpreceive 9002;
#X floatatom 160 84 5 0 0 0 - - -;
#X floatatom 252 83 5 0 0 0 - - -;
#X obj 111 -66 import mrpeach;
#X obj 120 179 osc~;
#X msg 119 120 440;
#X msg 244 169 10 0 \, 0 500;
#X obj 198 206 vline~;
#X obj 283 119 bng 15 250 50 0 empty empty empty 17 7 0 10 -262144
-1 -1;
#X obj 123 308 freeverb~;
#X msg 527 68 roomsize \$1;
#X msg 460 136 damping \$1;
#X msg 456 206 wet \$1;
#X msg 455 227 dry \$1;
#X msg 474 296 freeze \$1;
#X msg 397 345 bypass \$1;
#X obj 474 279 tgl 15 0 empty empty empty 17 7 0 10 -262144 -1 -1 0
1;
#X obj 397 328 tgl 15 0 empty empty empty 17 7 0 10 -262144 -1 -1 0
1;
#X obj 588 169 hsl 128 15 0 1 0 0 empty empty empty -2 -8 0 10 -4032
-1 -1 12700 1;
#X floatatom 585 188 5 0 0 0 - - -;
#X obj 516 210 expr 1-$f1;
#X obj 588 107 hsl 128 15 0 1 0 0 empty empty empty -2 -8 0 10 -260097
-1 -1 10700 1;
#X floatatom 585 131 5 0 0 0 - - -;
#X floatatom 472 79 5 0 0 0 - - -;
#X text 635 196 Wet signal to dry signal ratio;
#X text 635 212 (0 : all dry \, 1 : all wet);
#X text 636 131 Damping level;
#X text 635 77 Roomize;
#X obj 557 -52 hsl 128 15 0 1 0 0 empty empty empty -2 -8 0 10 -262144
-1 -1 12700 1;
#X obj 145 203 *~;
#X obj 222 29 routeOSC /vol /freq /bang /bypass /roomsize;
#X connect 1 0 12 0;
#X connect 2 0 33 0;
#X connect 3 0 2 0;
#X connect 4 0 32 0;
#X connect 7 0 1 0;
#X connect 8 0 7 0;
#X connect 9 0 10 0;
#X connect 10 0 32 1;
#X connect 11 0 9 0;
#X connect 12 0 0 0;
#X connect 12 0 0 1;
#X connect 13 0 12 0;
#X connect 14 0 12 0;
#X connect 15 0 12 0;
#X connect 16 0 12 0;
#X connect 17 0 12 0;
#X connect 18 0 12 0;
#X connect 19 0 17 0;
#X connect 20 0 18 0;
#X connect 21 0 22 0;
#X connect 21 0 15 0;
#X connect 21 0 23 0;
#X connect 23 0 16 0;
#X connect 24 0 14 0;
#X connect 24 0 25 0;
#X connect 31 0 13 0;
#X connect 31 0 26 0;
#X connect 32 0 1 1;
#X connect 33 0 4 0;
#X connect 33 1 5 0;
#X connect 33 1 7 0;
#X connect 33 2 11 0;
#X connect 33 3 20 0;
#X connect 33 4 13 0;
#X connect 33 4 26 0;
